<svg xmlns="http://www.w3.org/2000/svg" width="32" height="32" viewBox="0 0 32 32" fill="none">
    <path
        d="M3 2.99978H7.84849L11.097 19.2301C11.2078 19.7881 11.5114 20.2894 11.9546 20.6462C12.3978 21.003 12.9524 21.1925 13.5212 21.1816H25.303C25.8719 21.1925 26.4265 21.003 26.8696 20.6462C27.3128 20.2894 27.6164 19.7881 27.7273 19.2301L29.6667 9.06039H9.06061M13.9091 27.2422C13.9091 27.9116 13.3664 28.4543 12.697 28.4543C12.0275 28.4543 11.4849 27.9116 11.4849 27.2422C11.4849 26.5728 12.0275 26.0301 12.697 26.0301C13.3664 26.0301 13.9091 26.5728 13.9091 27.2422ZM27.2424 27.2422C27.2424 27.9116 26.6997 28.4543 26.0303 28.4543C25.3609 28.4543 24.8182 27.9116 24.8182 27.2422C24.8182 26.5728 25.3609 26.0301 26.0303 26.0301C26.6997 26.0301 27.2424 26.5728 27.2424 27.2422Z"
        stroke="white" stroke-width="2.42424" stroke-linecap="round" stroke-linejoin="round" />
</svg>
