<svg xmlns="http://www.w3.org/2000/svg" width="33" height="32" viewBox="0 0 33 32" fill="none">
    <path
        d="M20.1 8.4C19.8557 8.64924 19.7189 8.98433 19.7189 9.33333C19.7189 9.68234 19.8557 10.0174 20.1 10.2667L22.2333 12.4C22.4826 12.6443 22.8177 12.7811 23.1667 12.7811C23.5157 12.7811 23.8508 12.6443 24.1 12.4L29.1267 7.37333C29.7971 8.85492 30.0001 10.5056 29.7086 12.1055C29.4171 13.7054 28.645 15.1785 27.495 16.3284C26.3451 17.4783 24.8721 18.2504 23.2722 18.5419C21.6723 18.8334 20.0216 18.6304 18.54 17.96L9.32667 27.1733C8.79624 27.7038 8.07682 28.0018 7.32667 28.0018C6.57653 28.0018 5.85711 27.7038 5.32667 27.1733C4.79624 26.6429 4.49825 25.9235 4.49825 25.1733C4.49825 24.4232 4.79624 23.7038 5.32667 23.1733L14.54 13.96C13.8696 12.4784 13.6666 10.8277 13.9581 9.22781C14.2496 7.62793 15.0217 6.15487 16.1716 5.00496C17.3215 3.85505 18.7946 3.08289 20.3945 2.79139C21.9944 2.49989 23.6451 2.70289 25.1267 3.37333L20.1133 8.38667L20.1 8.4Z"
        stroke="white" stroke-width="2.66667" stroke-linecap="round" stroke-linejoin="round" />
</svg>
