<svg xmlns="http://www.w3.org/2000/svg" width="24" height="25" viewBox="0 0 24 25" fill="none">
    <path
        d="M17 21.1758V19.1758C17 18.1149 16.5786 17.0975 15.8284 16.3474C15.0783 15.5972 14.0609 15.1758 13 15.1758H5C3.93913 15.1758 2.92172 15.5972 2.17157 16.3474C1.42143 17.0975 1 18.1149 1 19.1758V21.1758M23 21.1758V19.1758C22.9993 18.2895 22.7044 17.4286 22.1614 16.7281C21.6184 16.0277 20.8581 15.5274 20 15.3058M16 3.3058C16.8604 3.5261 17.623 4.0265 18.1676 4.72811C18.7122 5.42972 19.0078 6.29263 19.0078 7.1808C19.0078 8.06897 18.7122 8.93188 18.1676 9.63349C17.623 10.3351 16.8604 10.8355 16 11.0558M13 7.1758C13 9.38494 11.2091 11.1758 9 11.1758C6.79086 11.1758 5 9.38494 5 7.1758C5 4.96666 6.79086 3.1758 9 3.1758C11.2091 3.1758 13 4.96666 13 7.1758Z"
        stroke="#667085" stroke-width="2" stroke-linecap="round" stroke-linejoin="round" />
</svg>
